<?xml version="1.0" encoding="UTF-8"?>
<svg id="Layer_2" data-name="Layer 2" xmlns="http://www.w3.org/2000/svg" viewBox="0 0 346.48 47.07">
  <defs>
    <style>
      .cls-1 {
        fill: #fff;
      }

      .cls-2 {
        fill: #0a0909;
      }
    </style>
  </defs>
  <g id="Layer_1-2" data-name="Layer 1">
    <g>
      <path class="cls-2" d="M0,0v47.07h346.48V0H0ZM6.19,44.15c0,.46-.37.83-.83.83h-3.18c-.46,0-.83-.37-.83-.83v-2.34c0-.46.37-.83.83-.83h3.18c.46,0,.83.37.83.83v2.34ZM6.19,5.09c0,.46-.37.83-.83.83h-3.18c-.46,0-.83-.37-.83-.83v-2.34c0-.46.37-.83.83-.83h3.18c.46,0,.83.37.83.83v2.34ZM13.58,44.15c0,.46-.37.83-.83.83h-3.18c-.46,0-.83-.37-.83-.83v-2.34c0-.46.37-.83.83-.83h3.18c.46,0,.83.37.83.83v2.34ZM13.58,5.09c0,.46-.37.83-.83.83h-3.18c-.46,0-.83-.37-.83-.83v-2.34c0-.46.37-.83.83-.83h3.18c.46,0,.83.37.83.83v2.34ZM20.98,44.15c0,.46-.37.83-.83.83h-3.18c-.46,0-.83-.37-.83-.83v-2.34c0-.46.37-.83.83-.83h3.18c.46,0,.83.37.83.83v2.34ZM20.98,5.09c0,.46-.37.83-.83.83h-3.18c-.46,0-.83-.37-.83-.83v-2.34c0-.46.37-.83.83-.83h3.18c.46,0,.83.37.83.83v2.34ZM28.37,44.15c0,.46-.37.83-.83.83h-3.18c-.46,0-.83-.37-.83-.83v-2.34c0-.46.37-.83.83-.83h3.18c.46,0,.83.37.83.83v2.34ZM28.37,5.09c0,.46-.37.83-.83.83h-3.18c-.46,0-.83-.37-.83-.83v-2.34c0-.46.37-.83.83-.83h3.18c.46,0,.83.37.83.83v2.34ZM35.77,44.15c0,.46-.37.83-.83.83h-3.18c-.46,0-.83-.37-.83-.83v-2.34c0-.46.37-.83.83-.83h3.18c.46,0,.83.37.83.83v2.34ZM35.77,5.09c0,.46-.37.83-.83.83h-3.18c-.46,0-.83-.37-.83-.83v-2.34c0-.46.37-.83.83-.83h3.18c.46,0,.83.37.83.83v2.34ZM43.16,44.15c0,.46-.37.83-.83.83h-3.18c-.46,0-.83-.37-.83-.83v-2.34c0-.46.37-.83.83-.83h3.18c.46,0,.83.37.83.83v2.34ZM43.16,5.09c0,.46-.37.83-.83.83h-3.18c-.46,0-.83-.37-.83-.83v-2.34c0-.46.37-.83.83-.83h3.18c.46,0,.83.37.83.83v2.34ZM50.55,44.15c0,.46-.37.83-.83.83h-3.18c-.46,0-.83-.37-.83-.83v-2.34c0-.46.37-.83.83-.83h3.18c.46,0,.83.37.83.83v2.34ZM50.55,5.09c0,.46-.37.83-.83.83h-3.18c-.46,0-.83-.37-.83-.83v-2.34c0-.46.37-.83.83-.83h3.18c.46,0,.83.37.83.83v2.34ZM57.95,44.15c0,.46-.37.83-.83.83h-3.18c-.46,0-.83-.37-.83-.83v-2.34c0-.46.37-.83.83-.83h3.18c.46,0,.83.37.83.83v2.34ZM57.95,5.09c0,.46-.37.83-.83.83h-3.18c-.46,0-.83-.37-.83-.83v-2.34c0-.46.37-.83.83-.83h3.18c.46,0,.83.37.83.83v2.34ZM65.34,44.15c0,.46-.37.83-.83.83h-3.18c-.46,0-.83-.37-.83-.83v-2.34c0-.46.37-.83.83-.83h3.18c.46,0,.83.37.83.83v2.34ZM65.34,5.09c0,.46-.37.83-.83.83h-3.18c-.46,0-.83-.37-.83-.83v-2.34c0-.46.37-.83.83-.83h3.18c.46,0,.83.37.83.83v2.34ZM72.73,44.15c0,.46-.37.83-.83.83h-3.18c-.46,0-.83-.37-.83-.83v-2.34c0-.46.37-.83.83-.83h3.18c.46,0,.83.37.83.83v2.34ZM72.73,5.09c0,.46-.37.83-.83.83h-3.18c-.46,0-.83-.37-.83-.83v-2.34c0-.46.37-.83.83-.83h3.18c.46,0,.83.37.83.83v2.34ZM80.13,44.15c0,.46-.37.83-.83.83h-3.18c-.46,0-.83-.37-.83-.83v-2.34c0-.46.37-.83.83-.83h3.18c.46,0,.83.37.83.83v2.34ZM80.13,5.09c0,.46-.37.83-.83.83h-3.18c-.46,0-.83-.37-.83-.83v-2.34c0-.46.37-.83.83-.83h3.18c.46,0,.83.37.83.83v2.34ZM87.52,44.15c0,.46-.37.83-.83.83h-3.18c-.46,0-.83-.37-.83-.83v-2.34c0-.46.37-.83.83-.83h3.18c.46,0,.83.37.83.83v2.34ZM87.52,5.09c0,.46-.37.83-.83.83h-3.18c-.46,0-.83-.37-.83-.83v-2.34c0-.46.37-.83.83-.83h3.18c.46,0,.83.37.83.83v2.34ZM94.92,44.15c0,.46-.37.83-.83.83h-3.18c-.46,0-.83-.37-.83-.83v-2.34c0-.46.37-.83.83-.83h3.18c.46,0,.83.37.83.83v2.34ZM94.92,5.09c0,.46-.37.83-.83.83h-3.18c-.46,0-.83-.37-.83-.83v-2.34c0-.46.37-.83.83-.83h3.18c.46,0,.83.37.83.83v2.34ZM102.31,44.15c0,.46-.37.83-.83.83h-3.18c-.46,0-.83-.37-.83-.83v-2.34c0-.46.37-.83.83-.83h3.18c.46,0,.83.37.83.83v2.34ZM102.31,5.09c0,.46-.37.83-.83.83h-3.18c-.46,0-.83-.37-.83-.83v-2.34c0-.46.37-.83.83-.83h3.18c.46,0,.83.37.83.83v2.34ZM109.7,44.15c0,.46-.37.83-.83.83h-3.18c-.46,0-.83-.37-.83-.83v-2.34c0-.46.37-.83.83-.83h3.18c.46,0,.83.37.83.83v2.34ZM109.7,5.09c0,.46-.37.83-.83.83h-3.18c-.46,0-.83-.37-.83-.83v-2.34c0-.46.37-.83.83-.83h3.18c.46,0,.83.37.83.83v2.34ZM117.1,44.15c0,.46-.37.83-.83.83h-3.18c-.46,0-.83-.37-.83-.83v-2.34c0-.46.37-.83.83-.83h3.18c.46,0,.83.37.83.83v2.34ZM117.1,5.09c0,.46-.37.83-.83.83h-3.18c-.46,0-.83-.37-.83-.83v-2.34c0-.46.37-.83.83-.83h3.18c.46,0,.83.37.83.83v2.34ZM124.49,44.15c0,.46-.37.83-.83.83h-3.18c-.46,0-.83-.37-.83-.83v-2.34c0-.46.37-.83.83-.83h3.18c.46,0,.83.37.83.83v2.34ZM124.49,5.09c0,.46-.37.83-.83.83h-3.18c-.46,0-.83-.37-.83-.83v-2.34c0-.46.37-.83.83-.83h3.18c.46,0,.83.37.83.83v2.34ZM131.88,44.15c0,.46-.37.83-.83.83h-3.18c-.46,0-.83-.37-.83-.83v-2.34c0-.46.37-.83.83-.83h3.18c.46,0,.83.37.83.83v2.34ZM131.88,5.09c0,.46-.37.83-.83.83h-3.18c-.46,0-.83-.37-.83-.83v-2.34c0-.46.37-.83.83-.83h3.18c.46,0,.83.37.83.83v2.34ZM139.28,44.15c0,.46-.37.83-.83.83h-3.18c-.46,0-.83-.37-.83-.83v-2.34c0-.46.37-.83.83-.83h3.18c.46,0,.83.37.83.83v2.34ZM139.28,5.09c0,.46-.37.83-.83.83h-3.18c-.46,0-.83-.37-.83-.83v-2.34c0-.46.37-.83.83-.83h3.18c.46,0,.83.37.83.83v2.34ZM146.67,44.15c0,.46-.37.83-.83.83h-3.18c-.46,0-.83-.37-.83-.83v-2.34c0-.46.37-.83.83-.83h3.18c.46,0,.83.37.83.83v2.34ZM146.67,5.09c0,.46-.37.83-.83.83h-3.18c-.46,0-.83-.37-.83-.83v-2.34c0-.46.37-.83.83-.83h3.18c.46,0,.83.37.83.83v2.34ZM154.07,44.15c0,.46-.37.83-.83.83h-3.18c-.46,0-.83-.37-.83-.83v-2.34c0-.46.37-.83.83-.83h3.18c.46,0,.83.37.83.83v2.34ZM154.07,5.09c0,.46-.37.83-.83.83h-3.18c-.46,0-.83-.37-.83-.83v-2.34c0-.46.37-.83.83-.83h3.18c.46,0,.83.37.83.83v2.34ZM161.46,44.15c0,.46-.37.83-.83.83h-3.18c-.46,0-.83-.37-.83-.83v-2.34c0-.46.37-.83.83-.83h3.18c.46,0,.83.37.83.83v2.34ZM161.46,5.09c0,.46-.37.83-.83.83h-3.18c-.46,0-.83-.37-.83-.83v-2.34c0-.46.37-.83.83-.83h3.18c.46,0,.83.37.83.83v2.34ZM168.85,44.15c0,.46-.37.83-.83.83h-3.18c-.46,0-.83-.37-.83-.83v-2.34c0-.46.37-.83.83-.83h3.18c.46,0,.83.37.83.83v2.34ZM168.85,5.09c0,.46-.37.83-.83.83h-3.18c-.46,0-.83-.37-.83-.83v-2.34c0-.46.37-.83.83-.83h3.18c.46,0,.83.37.83.83v2.34ZM176.25,44.15c0,.46-.37.83-.83.83h-3.18c-.46,0-.83-.37-.83-.83v-2.34c0-.46.37-.83.83-.83h3.18c.46,0,.83.37.83.83v2.34ZM176.25,5.09c0,.46-.37.83-.83.83h-3.18c-.46,0-.83-.37-.83-.83v-2.34c0-.46.37-.83.83-.83h3.18c.46,0,.83.37.83.83v2.34ZM183.64,44.15c0,.46-.37.83-.83.83h-3.18c-.46,0-.83-.37-.83-.83v-2.34c0-.46.37-.83.83-.83h3.18c.46,0,.83.37.83.83v2.34ZM183.64,5.09c0,.46-.37.83-.83.83h-3.18c-.46,0-.83-.37-.83-.83v-2.34c0-.46.37-.83.83-.83h3.18c.46,0,.83.37.83.83v2.34ZM191.03,44.15c0,.46-.37.83-.83.83h-3.18c-.46,0-.83-.37-.83-.83v-2.34c0-.46.37-.83.83-.83h3.18c.46,0,.83.37.83.83v2.34ZM191.03,5.09c0,.46-.37.83-.83.83h-3.18c-.46,0-.83-.37-.83-.83v-2.34c0-.46.37-.83.83-.83h3.18c.46,0,.83.37.83.83v2.34ZM198.43,44.15c0,.46-.37.83-.83.83h-3.18c-.46,0-.83-.37-.83-.83v-2.34c0-.46.37-.83.83-.83h3.18c.46,0,.83.37.83.83v2.34ZM198.43,5.09c0,.46-.37.83-.83.83h-3.18c-.46,0-.83-.37-.83-.83v-2.34c0-.46.37-.83.83-.83h3.18c.46,0,.83.37.83.83v2.34ZM205.82,44.15c0,.46-.37.83-.83.83h-3.18c-.46,0-.83-.37-.83-.83v-2.34c0-.46.37-.83.83-.83h3.18c.46,0,.83.37.83.83v2.34ZM205.82,5.09c0,.46-.37.83-.83.83h-3.18c-.46,0-.83-.37-.83-.83v-2.34c0-.46.37-.83.83-.83h3.18c.46,0,.83.37.83.83v2.34ZM213.22,44.15c0,.46-.37.83-.83.83h-3.18c-.46,0-.83-.37-.83-.83v-2.34c0-.46.37-.83.83-.83h3.18c.46,0,.83.37.83.83v2.34ZM213.22,5.09c0,.46-.37.83-.83.83h-3.18c-.46,0-.83-.37-.83-.83v-2.34c0-.46.37-.83.83-.83h3.18c.46,0,.83.37.83.83v2.34ZM220.61,44.15c0,.46-.37.83-.83.83h-3.18c-.46,0-.83-.37-.83-.83v-2.34c0-.46.37-.83.83-.83h3.18c.46,0,.83.37.83.83v2.34ZM220.61,5.09c0,.46-.37.83-.83.83h-3.18c-.46,0-.83-.37-.83-.83v-2.34c0-.46.37-.83.83-.83h3.18c.46,0,.83.37.83.83v2.34ZM228,44.15c0,.46-.37.83-.83.83h-3.18c-.46,0-.83-.37-.83-.83v-2.34c0-.46.37-.83.83-.83h3.18c.46,0,.83.37.83.83v2.34ZM228,5.09c0,.46-.37.83-.83.83h-3.18c-.46,0-.83-.37-.83-.83v-2.34c0-.46.37-.83.83-.83h3.18c.46,0,.83.37.83.83v2.34ZM235.4,44.15c0,.46-.37.83-.83.83h-3.18c-.46,0-.83-.37-.83-.83v-2.34c0-.46.37-.83.83-.83h3.18c.46,0,.83.37.83.83v2.34ZM235.4,5.09c0,.46-.37.83-.83.83h-3.18c-.46,0-.83-.37-.83-.83v-2.34c0-.46.37-.83.83-.83h3.18c.46,0,.83.37.83.83v2.34ZM242.79,44.15c0,.46-.37.83-.83.83h-3.18c-.46,0-.83-.37-.83-.83v-2.34c0-.46.37-.83.83-.83h3.18c.46,0,.83.37.83.83v2.34ZM242.79,5.09c0,.46-.37.83-.83.83h-3.18c-.46,0-.83-.37-.83-.83v-2.34c0-.46.37-.83.83-.83h3.18c.46,0,.83.37.83.83v2.34ZM250.18,44.15c0,.46-.37.83-.83.83h-3.18c-.46,0-.83-.37-.83-.83v-2.34c0-.46.37-.83.83-.83h3.18c.46,0,.83.37.83.83v2.34ZM250.18,5.09c0,.46-.37.83-.83.83h-3.18c-.46,0-.83-.37-.83-.83v-2.34c0-.46.37-.83.83-.83h3.18c.46,0,.83.37.83.83v2.34ZM257.58,44.15c0,.46-.37.83-.83.83h-3.18c-.46,0-.83-.37-.83-.83v-2.34c0-.46.37-.83.83-.83h3.18c.46,0,.83.37.83.83v2.34ZM257.58,5.09c0,.46-.37.83-.83.83h-3.18c-.46,0-.83-.37-.83-.83v-2.34c0-.46.37-.83.83-.83h3.18c.46,0,.83.37.83.83v2.34ZM264.97,44.15c0,.46-.37.83-.83.83h-3.18c-.46,0-.83-.37-.83-.83v-2.34c0-.46.37-.83.83-.83h3.18c.46,0,.83.37.83.83v2.34ZM264.97,5.09c0,.46-.37.83-.83.83h-3.18c-.46,0-.83-.37-.83-.83v-2.34c0-.46.37-.83.83-.83h3.18c.46,0,.83.37.83.83v2.34ZM272.37,44.15c0,.46-.37.83-.83.83h-3.18c-.46,0-.83-.37-.83-.83v-2.34c0-.46.37-.83.83-.83h3.18c.46,0,.83.37.83.83v2.34ZM272.37,5.09c0,.46-.37.83-.83.83h-3.18c-.46,0-.83-.37-.83-.83v-2.34c0-.46.37-.83.83-.83h3.18c.46,0,.83.37.83.83v2.34ZM279.76,44.15c0,.46-.37.83-.83.83h-3.18c-.46,0-.83-.37-.83-.83v-2.34c0-.46.37-.83.83-.83h3.18c.46,0,.83.37.83.83v2.34ZM279.76,5.09c0,.46-.37.83-.83.83h-3.18c-.46,0-.83-.37-.83-.83v-2.34c0-.46.37-.83.83-.83h3.18c.46,0,.83.37.83.83v2.34ZM287.15,44.15c0,.46-.37.83-.83.83h-3.18c-.46,0-.83-.37-.83-.83v-2.34c0-.46.37-.83.83-.83h3.18c.46,0,.83.37.83.83v2.34ZM287.15,5.09c0,.46-.37.83-.83.83h-3.18c-.46,0-.83-.37-.83-.83v-2.34c0-.46.37-.83.83-.83h3.18c.46,0,.83.37.83.83v2.34ZM294.55,44.15c0,.46-.37.83-.83.83h-3.18c-.46,0-.83-.37-.83-.83v-2.34c0-.46.37-.83.83-.83h3.18c.46,0,.83.37.83.83v2.34ZM294.55,5.09c0,.46-.37.83-.83.83h-3.18c-.46,0-.83-.37-.83-.83v-2.34c0-.46.37-.83.83-.83h3.18c.46,0,.83.37.83.83v2.34ZM301.94,44.15c0,.46-.37.83-.83.83h-3.18c-.46,0-.83-.37-.83-.83v-2.34c0-.46.37-.83.83-.83h3.18c.46,0,.83.37.83.83v2.34ZM301.94,5.09c0,.46-.37.83-.83.83h-3.18c-.46,0-.83-.37-.83-.83v-2.34c0-.46.37-.83.83-.83h3.18c.46,0,.83.37.83.83v2.34ZM309.33,44.15c0,.46-.37.83-.83.83h-3.18c-.46,0-.83-.37-.83-.83v-2.34c0-.46.37-.83.83-.83h3.18c.46,0,.83.37.83.83v2.34ZM309.33,5.09c0,.46-.37.83-.83.83h-3.18c-.46,0-.83-.37-.83-.83v-2.34c0-.46.37-.83.83-.83h3.18c.46,0,.83.37.83.83v2.34ZM316.73,44.15c0,.46-.37.83-.83.83h-3.18c-.46,0-.83-.37-.83-.83v-2.34c0-.46.37-.83.83-.83h3.18c.46,0,.83.37.83.83v2.34ZM316.73,5.09c0,.46-.37.83-.83.83h-3.18c-.46,0-.83-.37-.83-.83v-2.34c0-.46.37-.83.83-.83h3.18c.46,0,.83.37.83.83v2.34ZM324.12,44.15c0,.46-.37.83-.83.83h-3.18c-.46,0-.83-.37-.83-.83v-2.34c0-.46.37-.83.83-.83h3.18c.46,0,.83.37.83.83v2.34ZM324.12,5.09c0,.46-.37.83-.83.83h-3.18c-.46,0-.83-.37-.83-.83v-2.34c0-.46.37-.83.83-.83h3.18c.46,0,.83.37.83.83v2.34ZM331.52,44.15c0,.46-.37.83-.83.83h-3.18c-.46,0-.83-.37-.83-.83v-2.34c0-.46.37-.83.83-.83h3.18c.46,0,.83.37.83.83v2.34ZM331.52,5.09c0,.46-.37.83-.83.83h-3.18c-.46,0-.83-.37-.83-.83v-2.34c0-.46.37-.83.83-.83h3.18c.46,0,.83.37.83.83v2.34ZM338.91,44.15c0,.46-.37.83-.83.83h-3.18c-.46,0-.83-.37-.83-.83v-2.34c0-.46.37-.83.83-.83h3.18c.46,0,.83.37.83.83v2.34ZM338.91,5.09c0,.46-.37.83-.83.83h-3.18c-.46,0-.83-.37-.83-.83v-2.34c0-.46.37-.83.83-.83h3.18c.46,0,.83.37.83.83v2.34ZM346.3,44.15c0,.46-.37.83-.83.83h-3.18c-.46,0-.83-.37-.83-.83v-2.34c0-.46.37-.83.83-.83h3.18c.46,0,.83.37.83.83v2.34ZM346.3,5.09c0,.46-.37.83-.83.83h-3.18c-.46,0-.83-.37-.83-.83v-2.34c0-.46.37-.83.83-.83h3.18c.46,0,.83.37.83.83v2.34Z"/>
      <g>
        <path class="cls-1" d="M13.85,7.77H0v31.77h13.85c1.27,0,2.3-1.03,2.3-2.3V10.07c0-1.27-1.03-2.3-2.3-2.3Z"/>
        <rect class="cls-1" x="18.66" y="7.77" width="44.66" height="31.77" rx="2.3" ry="2.3"/>
        <path class="cls-1" d="M68.12,7.77h40.05c1.27,0,2.3,1.03,2.3,2.3v27.16c0,1.27-1.03,2.3-2.3,2.3h-40.05c-1.27,0-2.3-1.03-2.3-2.3V10.07c0-1.27,1.03-2.3,2.3-2.3Z"/>
        <rect class="cls-1" x="112.99" y="7.77" width="44.66" height="31.77" rx="2.3" ry="2.3"/>
        <rect class="cls-1" x="160.15" y="7.77" width="44.66" height="31.77" rx="2.3" ry="2.3"/>
        <path class="cls-1" d="M209.62,7.77h40.05c1.27,0,2.3,1.03,2.3,2.3v27.16c0,1.27-1.03,2.3-2.3,2.3h-40.05c-1.27,0-2.3-1.03-2.3-2.3V10.07c0-1.27,1.03-2.3,2.3-2.3Z"/>
        <path class="cls-1" d="M296.83,7.77h-40.05c-.87,0-1.63.49-2.02,1.21-.18.33-.28.7-.28,1.1v27.16c0,.4.1.77.28,1.1.39.72,1.15,1.2,2.02,1.2h40.05c1.27,0,2.3-1.03,2.3-2.3V10.07c0-1.27-1.03-2.3-2.3-2.3Z"/>
        <path class="cls-1" d="M344,7.77h-40.05c-1.27,0-2.3,1.03-2.3,2.3v27.16c0,1.27,1.03,2.3,2.3,2.3h40.05c1.27,0,2.3-1.03,2.3-2.3V10.07c0-1.27-1.03-2.3-2.3-2.3Z"/>
      </g>
    </g>
  </g>
</svg>