<?xml version="1.0" encoding="UTF-8"?>
<svg id="Layer_2" data-name="Layer 2" xmlns="http://www.w3.org/2000/svg" viewBox="0 0 243.05 408.74">
  <defs>
    <style>
      .cls-1 {
        fill: #b29552;
      }
    </style>
  </defs>
  <g id="Layer_1-2" data-name="Layer 1">
    <g>
      <path class="cls-1" d="M95.37,4.94c14.93-6.28,32.87-7.08,47.47.56,22.37,10.43,34.83,36.47,32.23,60.51-1.12,18.05-8.7,35.16-18.63,50.07-10.73,16.82-24.24,31.68-38.8,45.25-7.86,6.78-14.77,14.58-22.73,21.25-7.46,7.57-15.79,14.2-23.14,21.89-9.23,8.81-17.56,18.47-25.93,28.09-11.07,13.32-21.34,27.81-26.75,44.43-3.34,10.66-5.6,21.79-5.2,33.01-.05,5.95,1.48,11.75,2.2,17.62-14.05-19.1-19.06-44.21-14.4-67.36,4.42-24.15,18.31-45.4,34.47-63.39,10.75-12.54,22.48-24.18,34.01-36,14.24-15.45,29.38-30.19,41.78-47.23,9.49-13.4,17.72-28.24,20.45-44.62,2.3-12.15,1.8-25.21-3.53-36.53-3.55-6.62-9.35-12.94-17.08-14.24-7.93-1.9-16.56,1.32-22,7.24-7.09,7.77-11.67,17.94-12.25,28.49-1.38,19.66,6.25,38.82,16.61,55.16,1.41,2.66,4.31,4.68,4.91,7.65-4.63,6.3-9.7,12.27-14.74,18.24-3.36,4.02-5.99,8.6-9.45,12.52-1.53.54-2.17-1.18-2.99-2.08-11.65-16.87-21.59-35.76-23.63-56.47-4.44-34.26,15.89-69.7,47.12-84.06Z"/>
      <path class="cls-1" d="M172.87,156.58c14.32-13.34,26.85-29.26,32.92-48.09-.25,18.04-7.03,35.48-16.13,50.85-16.72,28.14-42.48,49-67.09,69.91-13.09,11.56-26.49,22.81-38.78,35.24-16.78,17.07-31.58,37.14-37.57,60.67-1.06,4.55-1.63,9.2-2.25,13.82-.25,5.63,1.44,11.12,1.83,16.71-4.91-5.39-7.93-12.13-10.79-18.75-5.85-13.59-6.28-29.23-1.91-43.29,4.68-15.23,14.22-28.39,24.64-40.21,7.49-7.84,15.02-15.66,23.01-22.99,15.45-13.68,31.72-26.42,48.33-38.66,14.79-11.48,30.33-22.12,43.79-35.21Z"/>
      <path class="cls-1" d="M211.55,191.25c13.29-14.21,25.5-30.22,31.36-49.02.7,8.45-1.51,16.74-3.69,24.82-4.33,14.01-10.32,27.52-17.87,40.09-9.85,15.39-21.48,29.61-34.25,42.66-8.07,7.26-15.37,15.33-23.73,22.27-9.57,9.45-19.77,18.39-27.78,29.27-11.6,14.71-21.32,32.38-20.84,51.64-.39,10.41,3.6,21.09,11.31,28.2,5.1,4.86,12.31,6.81,19.24,6.55,9.75.1,18.99-5.3,24.77-12.97,6.01-8.35,9.97-18.43,9.9-28.82,1.06-17.49-4.89-34.81-14.54-49.22-2.17-3.25-4.7-6.23-6.84-9.49,4.39-4.27,8.61-8.73,13.55-12.39,4.31-3.2,7.67-7.63,12.54-10.07,11.58,16.84,20.73,36.4,21.31,57.15,1.39,25.74-10.4,51.28-29.18,68.6-10.13,9.79-23.51,16.35-37.52,18.04-7.79.01-15.8.94-23.33-1.56-15.92-3.77-29.36-15.36-36.93-29.66-5.43-9.84-7.39-21.23-7.4-32.36.75-16.39,6.55-32.33,15.65-45.91,11.54-17.5,27.73-31.25,44.37-43.71,27.4-20.34,55.96-39.58,79.9-64.11Z"/>
    </g>
  </g>
</svg>